<?xml version="1.0" encoding="utf-8"?>
<!-- Generator: Adobe Illustrator 25.0.0, SVG Export Plug-In . SVG Version: 6.00 Build 0)  -->
<svg version="1.1" id="Layer_1" xmlns="http://www.w3.org/2000/svg" xmlns:xlink="http://www.w3.org/1999/xlink" x="0px" y="0px"
	 viewBox="0 0 463.58 205.34" style="enable-background:new 0 0 463.58 205.34;" xml:space="preserve">
<style type="text/css">
	.st0{fill:#FFFFFF;}
	.st1{fill:#3A3DEA;}
</style>
<rect width="463.58" height="205.34"/>
<g>
	<g>
		<path class="st1" d="M385.59,114.36l-10.67,17.59h49.25v-17.59H385.59z M395.97,129.53h-9.62v-12.75h9.42v2.38h-6.76v2.68h5.26
			v2.32h-5.26v3h6.96V129.53z M410.34,129.53h-2.48v-9.5h-0.46l-2.14,5.15h-2.66l-2.13-5.15h-0.46v9.5h-2.49v-12.75h4.09l2.09,5.15
			h0.47l2.07-5.15h4.1V129.53z M421.13,128.61c-0.88,0.77-2.15,1.16-3.8,1.16c-1.6,0-2.87-0.37-3.82-1.11
			c-0.96-0.74-1.5-1.75-1.63-3.02h2.71c0.21,1.23,1.15,1.84,2.84,1.84c0.72,0,1.29-0.14,1.71-0.43c0.42-0.28,0.63-0.68,0.63-1.18
			c0-0.47-0.14-0.83-0.43-1.07c-0.3-0.24-0.73-0.41-1.3-0.52l-2.43-0.42c-2.18-0.39-3.27-1.55-3.27-3.49c0-1.09,0.43-2,1.29-2.73
			s2.03-1.09,3.52-1.09c1.39,0,2.54,0.34,3.44,1c0.89,0.67,1.42,1.58,1.56,2.73h-2.72c-0.21-0.96-0.98-1.44-2.32-1.44
			c-0.6,0-1.1,0.12-1.5,0.36c-0.39,0.25-0.59,0.61-0.59,1.08c0,0.68,0.53,1.12,1.59,1.31l2.38,0.43c2.31,0.42,3.46,1.67,3.46,3.73
			C422.45,126.89,422.01,127.85,421.13,128.61z"/>
		<g>
			<path class="st0" d="M70.08,104l1.14-6.63H45.08l-6.24,35.62h26.7l1.09-6.64H47.37l1.55-8.38h14.57l1.15-6.48H50.02l1.3-7.49
				H70.08z"/>
			<path class="st0" d="M74.82,96.72l-6.39,36.27h6.98l6.39-36.27H74.82z"/>
			<path class="st0" d="M104.91,120.97c0.16-1.27,0.25-2.28,0.25-3.05c0-3.52-1.08-6.28-3.25-8.25c-2.16-1.98-4.8-2.97-7.93-2.97
				c-4.36,0-7.79,1.43-10.3,4.29c-2.51,2.86-3.77,6.58-3.77,11.17c0,3.53,1.12,6.32,3.37,8.39c2.24,2.06,5.06,3.09,8.46,3.09
				c3.32,0,6.06-0.75,8.2-2.25c2.15-1.49,3.5-3.57,4.07-6.23h-7.08c-0.77,1.79-2.32,2.69-4.64,2.69c-1.73,0-3.08-0.54-4.05-1.62
				c-0.96-1.08-1.44-2.54-1.44-4.37c0-0.46,0.01-0.76,0.05-0.89H104.91z M93.68,111.94c1.43,0,2.52,0.39,3.27,1.19
				s1.16,1.87,1.22,3.2H87.65C88.68,113.4,90.69,111.94,93.68,111.94z"/>
			<path class="st0" d="M121.87,126.9c-0.9,0.64-1.98,0.95-3.24,0.95c-1.67,0-2.95-0.52-3.87-1.57c-0.91-1.05-1.37-2.5-1.37-4.37
				c0-2.56,0.61-4.76,1.85-6.61c1.23-1.84,2.92-2.77,5.09-2.77c2.42,0,3.84,1,4.24,3h6.88c-0.2-2.63-1.3-4.76-3.32-6.39
				c-2.01-1.63-4.5-2.44-7.46-2.44c-4.45,0-7.95,1.44-10.47,4.34c-2.53,2.89-3.8,6.62-3.8,11.17c0,3.53,1.12,6.31,3.35,8.36
				c2.23,2.05,5.04,3.07,8.43,3.07c3.39,0,6.18-0.83,8.36-2.5c2.18-1.66,3.53-3.92,4.06-6.78h-6.93
				C123.37,125.42,122.77,126.27,121.87,126.9z"/>
			<path class="st0" d="M141.4,113.18h5.54l1-5.84h-5.49l1.25-7.18h-6.99l-4.19,24c-0.17,1.06-0.25,1.93-0.25,2.59
				c0,1.9,0.65,3.41,1.95,4.54c1.29,1.14,3.14,1.7,5.54,1.7h3.69l1-5.94h-2.75c-1.6,0-2.39-0.6-2.39-1.79c0-0.5,0.06-1,0.2-1.5
				L141.4,113.18z"/>
			<path class="st0" d="M160.31,107.34c-6.02,0-11.17,4.33-12.21,10.26l-2.69,15.39h6.98l2.05-11.57c0.86-5.03,3.89-7.54,9.08-7.54
				h2.49l1.15-6.54H160.31z"/>
			<path class="st0" d="M170.9,96.72l-1.09,6.23h7.03l1.15-6.23H170.9z M169.06,107.34l-4.49,25.65h6.98l4.49-25.65H169.06z"/>
			<path class="st0" d="M190.87,126.9c-0.89,0.64-1.98,0.95-3.24,0.95c-1.66,0-2.95-0.52-3.87-1.57c-0.91-1.05-1.37-2.5-1.37-4.37
				c0-2.56,0.62-4.76,1.85-6.61c1.23-1.84,2.92-2.77,5.09-2.77c2.43,0,3.84,1,4.24,3h6.88c-0.2-2.63-1.3-4.76-3.31-6.39
				c-2.02-1.63-4.5-2.44-7.46-2.44c-4.46,0-7.95,1.44-10.48,4.34c-2.53,2.89-3.79,6.62-3.79,11.17c0,3.53,1.11,6.31,3.34,8.36
				c2.23,2.05,5.04,3.07,8.43,3.07c3.39,0,6.18-0.83,8.36-2.5c2.18-1.66,3.53-3.92,4.07-6.78h-6.94
				C192.37,125.42,191.77,126.27,190.87,126.9z"/>
			<path class="st0" d="M298.47,110.94c0.92-1.4,1.37-3.15,1.37-5.24c0-2.5-0.96-4.51-2.89-6.04c-1.93-1.53-4.46-2.29-7.58-2.29
				H273.6l-6.24,35.62h15.32c2.33,0,4.38-0.17,6.16-0.5c1.78-0.33,3.41-0.9,4.89-1.7c1.48-0.79,2.62-1.92,3.42-3.36
				c0.8-1.45,1.2-3.2,1.2-5.27c0-1.63-0.34-3.05-1.03-4.26c-0.68-1.22-1.59-2.12-2.72-2.72l0.25-1.3
				C296.35,113.32,297.56,112.33,298.47,110.94z M288.79,125.38c-1.15,0.85-2.64,1.27-4.46,1.27h-8.49l1.65-8.93h8.28
				c1.37,0,2.5,0.32,3.4,0.95c0.89,0.63,1.34,1.57,1.34,2.8C290.51,123.23,289.94,124.53,288.79,125.38z M290.51,110.39
				c-1,0.73-2.31,1.1-3.94,1.1h-8.03l1.4-7.94h6.78c3.53,0,5.29,1.13,5.29,3.4C292.01,108.51,291.51,109.66,290.51,110.39z"/>
			<path class="st0" d="M322.99,109.79c-2.32-2.06-5.2-3.09-8.63-3.09c-4.52,0-8.07,1.43-10.65,4.29s-3.87,6.58-3.87,11.17
				c0,3.56,1.14,6.36,3.42,8.41c2.28,2.05,5.15,3.07,8.61,3.07c4.49,0,8.05-1.44,10.68-4.32c2.62-2.87,3.94-6.59,3.94-11.15
				C326.49,114.65,325.32,111.85,322.99,109.79z M317.61,125.06c-1.3,1.86-3.07,2.79-5.29,2.79c-1.73,0-3.1-0.52-4.09-1.57
				c-1-1.05-1.5-2.52-1.5-4.42c0-2.52,0.65-4.71,1.94-6.56c1.3-1.84,3.05-2.77,5.24-2.77c1.77,0,3.15,0.52,4.14,1.55
				c1,1.03,1.5,2.48,1.5,4.34C319.55,120.98,318.9,123.19,317.61,125.06z"/>
			<path class="st0" d="M350.98,96.72l-2.34,13.27h-1.3c-1.29-2.2-3.61-3.29-6.93-3.29c-3.83,0-6.87,1.55-9.13,4.66
				c-2.27,3.11-3.4,6.78-3.4,11c0,3.33,0.84,6.04,2.52,8.14c1.68,2.09,4.02,3.14,7.01,3.14c2.86,0,5.06-1,6.59-2.99h1.3l-0.45,2.34
				h6.73l6.39-36.27H350.98z M345.22,124.98c-1.25,1.92-3,2.87-5.26,2.87c-1.67,0-2.9-0.52-3.72-1.57c-0.81-1.05-1.22-2.5-1.22-4.37
				c0-2.69,0.64-4.93,1.92-6.71c1.28-1.78,2.92-2.67,4.91-2.67c1.67,0,2.96,0.53,3.87,1.58c0.92,1.04,1.37,2.5,1.37,4.36
				C347.09,120.9,346.47,123.07,345.22,124.98z"/>
			<path class="st0" d="M377.74,107.34l-8.34,13.68h-1.29l-4.14-13.68h-6.79l6.64,22.86l-7.69,12.77h7.14l21.6-35.63H377.74z"/>
		</g>
		<g>
			<g>
				<path class="st1" d="M251.15,31.08c-11,0-19.95,8.95-19.95,19.95s8.95,19.95,19.95,19.95s19.95-8.95,19.95-19.95
					S262.15,31.08,251.15,31.08z M251.15,65.18c-7.8,0-14.15-6.35-14.15-14.15c0-7.8,6.35-14.14,14.15-14.14
					c7.8,0,14.15,6.34,14.15,14.14C265.3,58.83,258.95,65.18,251.15,65.18z"/>
			</g>
			<g>
				<path class="st1" d="M215.3,182.23c-0.38,0-0.76-0.07-1.13-0.23c-1.27-0.54-1.98-1.89-1.71-3.24l10.59-53.05h-15.13
					c-1.24,0-2.35-0.79-2.75-1.97c-0.4-1.18,0-2.48,0.99-3.24c0.28-0.21,27.98-21.61,24.64-38.44c-1.5-7.58-5.87-12.73-12.3-14.5
					c-8.06-2.22-17.75,1.31-24.68,9c-1.07,1.19-2.91,1.28-4.1,0.21c-1.19-1.07-1.28-2.91-0.21-4.1c8.39-9.3,20.38-13.5,30.53-10.71
					c8.53,2.35,14.53,9.26,16.45,18.96c2.94,14.79-11.87,30.9-20.68,38.97h10.78c0.87,0,1.69,0.39,2.24,1.06
					c0.55,0.67,0.77,1.56,0.6,2.41l-8.54,42.76l36.62-52.96h-13.51c-0.97,0-1.88-0.49-2.42-1.3c-0.54-0.81-0.63-1.84-0.26-2.73
					c0.2-0.47,4.93-11.58,14.6-24.19c12.89-16.79,28.45-28.1,45.02-32.7c1.54-0.43,3.14,0.48,3.57,2.02
					c0.43,1.54-0.48,3.14-2.02,3.57c-30.37,8.43-48.26,38.54-53.89,49.51h14.43c1.08,0,2.07,0.6,2.57,1.55
					c0.5,0.96,0.43,2.11-0.18,3l-47.75,69.06C217.14,181.78,216.23,182.23,215.3,182.23z"/>
			</g>
			<g>
				<g>
					<g>
						<path class="st1" d="M287.35,37.54c-1.15,0-2.24-0.69-2.69-1.82c-0.6-1.49,0.13-3.18,1.61-3.77l11.18-4.48
							c1.49-0.6,3.18,0.13,3.77,1.61c0.6,1.49-0.13,3.18-1.61,3.77l-11.18,4.48C288.07,37.47,287.71,37.54,287.35,37.54z"/>
					</g>
					<g>
						<path class="st1" d="M285.26,50.13c-1.15,0-2.24-0.69-2.69-1.82c-0.6-1.49,0.13-3.18,1.61-3.77l23.47-9.41
							c1.49-0.6,3.18,0.13,3.77,1.61c0.6,1.49-0.13,3.18-1.61,3.77l-23.47,9.41C285.98,50.07,285.62,50.13,285.26,50.13z"/>
					</g>
					<g>
						<path class="st1" d="M304.95,81.27c-1.15,0-2.24-0.69-2.69-1.82c-0.6-1.49,0.13-3.18,1.61-3.77l11.18-4.48
							c1.49-0.6,3.18,0.13,3.77,1.61c0.6,1.49-0.13,3.18-1.61,3.77l-11.18,4.48C305.67,81.2,305.3,81.27,304.95,81.27z"/>
					</g>
					<g>
						<path class="st1" d="M294.74,73.6c-1.15,0-2.24-0.69-2.69-1.82c-0.6-1.49,0.13-3.18,1.61-3.77l23.47-9.41
							c1.49-0.6,3.18,0.13,3.77,1.61c0.6,1.49-0.13,3.18-1.61,3.77l-23.47,9.41C295.46,73.54,295.1,73.6,294.74,73.6z"/>
					</g>
				</g>
				<g>
					<path class="st1" d="M306.48,68.9c-1.15,0-2.24-0.69-2.69-1.82l-9.48-23.47c-0.6-1.49,0.12-3.18,1.6-3.78
						c1.49-0.6,3.18,0.12,3.78,1.6l9.48,23.47c0.6,1.49-0.12,3.18-1.6,3.78C307.2,68.83,306.84,68.9,306.48,68.9z"/>
				</g>
			</g>
		</g>
	</g>
</g>
</svg>
